<svg id="Layer_1" data-name="Layer 1" xmlns="http://www.w3.org/2000/svg" viewBox="0 0 290.75 88.11"><defs><style>.cls-1{fill:#e20613;}.cls-2{fill:#fff;}</style></defs><title>FEC_logo</title><path class="cls-1" d="M46.3,15.76A22,22,0,0,0,63.39,7.63a43.83,43.83,0,0,0-14-3.32c-1-.07-2-.12-3-.12s-2,0-3,.12a43.82,43.82,0,0,0-14,3.32A22,22,0,0,0,46.3,15.76Z" transform="translate(-2.25 -4.19)"/><path class="cls-1" d="M67.78,48.24A33,33,0,0,1,81.35,21.56L80.9,21a44.34,44.34,0,0,0-7.34-7.34L73,13.2a33.18,33.18,0,0,1-3.33,3.89h0A32.93,32.93,0,0,1,46.3,26.77,33,33,0,0,1,19.62,13.2l-.57.45A44.29,44.29,0,0,0,11.71,21l-.45.57A33,33,0,0,1,24.83,48.25,33,33,0,0,1,11.26,74.93l.45.57A44.25,44.25,0,0,0,19,82.84l.57.45a33,33,0,0,1,50-3.9h0A33.46,33.46,0,0,1,73,83.29l.57-.45A44.34,44.34,0,0,0,80.9,75.5l.45-.57A33,33,0,0,1,67.78,48.24ZM46.3,58.71a44.06,44.06,0,0,0-12.18,1.72,44,44,0,0,0,1.72-12.18,44,44,0,0,0-1.72-12.18A44,44,0,0,0,46.3,37.78a44.06,44.06,0,0,0,12.18-1.72,44,44,0,0,0,0,24.36A44,44,0,0,0,46.3,58.71Z" transform="translate(-2.25 -4.19)"/><path class="cls-1" d="M90.24,45.19a43.8,43.8,0,0,0-3.32-14,22,22,0,0,0,0,34.17,43.82,43.82,0,0,0,3.32-14c.07-1,.12-2,.12-3S90.31,46.2,90.24,45.19Z" transform="translate(-2.25 -4.19)"/><path class="cls-1" d="M5.69,31.16a43.83,43.83,0,0,0-3.32,14c-.07,1-.12,2-.12,3s0,2,.12,3a43.82,43.82,0,0,0,3.32,14,22,22,0,0,0,8.13-17.08A22,22,0,0,0,5.69,31.16Z" transform="translate(-2.25 -4.19)"/><path class="cls-1" d="M46.3,80.73a22,22,0,0,0-17.08,8.13,43.77,43.77,0,0,0,14,3.32c1,.07,2,.12,3,.12s2,0,3.05-.12a43.75,43.75,0,0,0,14-3.32A22,22,0,0,0,46.3,80.73Z" transform="translate(-2.25 -4.19)"/><path class="cls-2" d="M145.4,31.08c0-1.76-1.51-2.86-4.08-2.86a9,9,0,0,0-5,1.47V25.32a12.41,12.41,0,0,1,6.08-1.51c5,0,7.83,2.57,7.83,7V42.46H145.4v-1a7.13,7.13,0,0,1-4.41,1.3c-3.67,0-6.73-2.12-6.73-5.91,0-3.47,3.06-5.84,7.06-5.84a8.15,8.15,0,0,1,4.08,1.06Zm0,5.1a3.51,3.51,0,0,0-3.23-1.59c-1.59,0-3.22.7-3.22,2.24s1.63,2.25,3.22,2.25a3.51,3.51,0,0,0,3.23-1.59Z" transform="translate(-2.25 -4.19)"/><path class="cls-2" d="M164.9,29.2a5.07,5.07,0,0,0-2.53-.61,3.3,3.3,0,0,0-3.47,2.57V42.46h-5.06V24.22h5.06V26a4.68,4.68,0,0,1,4.08-2.2,4.79,4.79,0,0,1,1.92.33Z" transform="translate(-2.25 -4.19)"/><path class="cls-2" d="M205,31.08c0-1.76-1.51-2.86-4.08-2.86a9,9,0,0,0-5,1.47V25.32A12.42,12.42,0,0,1,202,23.81c5,0,7.83,2.57,7.83,7V42.46H205v-1a7.13,7.13,0,0,1-4.41,1.3c-3.67,0-6.73-2.12-6.73-5.91,0-3.47,3.06-5.84,7.06-5.84A8.16,8.16,0,0,1,205,32.1Zm0,5.1a3.51,3.51,0,0,0-3.23-1.59c-1.59,0-3.22.7-3.22,2.24s1.63,2.25,3.22,2.25A3.51,3.51,0,0,0,205,37.48Z" transform="translate(-2.25 -4.19)"/><path class="cls-2" d="M212.68,36.34A10.05,10.05,0,0,0,219,38.87c1.51,0,2.69-.45,2.69-1.55s-.82-1.39-2.08-1.8L217.82,35c-3.18-.86-5.18-2.37-5.18-5.51,0-3.55,3.06-5.71,7.14-5.71a10.31,10.31,0,0,1,5.83,1.63v4.61A9,9,0,0,0,220,27.81c-1.39,0-2.45.53-2.45,1.55s.7,1.3,2,1.71l2,.61c3.47,1,5.06,2.61,5.06,5.55,0,3.67-3.22,5.63-7.51,5.63A11.14,11.14,0,0,1,212.68,41Z" transform="translate(-2.25 -4.19)"/><path class="cls-2" d="M236.43,42.46h-5.06V28.3H227.9V24.22h3.47V19.28h5.06v4.94h3.88V28.3h-3.88Z" transform="translate(-2.25 -4.19)"/><path class="cls-2" d="M133.48,22V17.41H121.62a4.84,4.84,0,0,0-4.83,4.83V42.46H122V32.87h10.65V28.34H122V22Z" transform="translate(-2.25 -4.19)"/><path class="cls-2" d="M191.9,22V17.41H179.72a4.84,4.84,0,0,0-4.83,4.83V42.46h17V37.85H180v-6H190.8V27.44H180V22Z" transform="translate(-2.25 -4.19)"/><path class="cls-2" d="M126.89,53.21a10.63,10.63,0,0,1,6.53,2v5.26A9.12,9.12,0,0,0,127.13,58c-4.49,0-7.43,3.22-7.43,8.16s2.94,8.12,7.43,8.12a9.06,9.06,0,0,0,6.28-2.41v5.26a10.61,10.61,0,0,1-6.53,2c-7.27,0-12.45-5.18-12.45-12.94S119.62,53.21,126.89,53.21Z" transform="translate(-2.25 -4.19)"/><path class="cls-2" d="M144.3,79.08c-5.31,0-8.94-3.92-8.94-9.51S139,60,144.3,60s8.94,3.92,8.94,9.55S149.61,79.08,144.3,79.08Zm0-14.78c-2.53,0-3.92,2.21-3.92,5.27s1.39,5.22,3.92,5.22,3.92-2.2,3.92-5.22S146.83,64.3,144.3,64.3Z" transform="translate(-2.25 -4.19)"/><path class="cls-2" d="M155.56,60.43h5.06V62.1a6.54,6.54,0,0,1,4.9-2.08c4.12,0,6.45,2.69,6.45,6.73V78.67H166.9V67.81c0-1.92-1-3.22-3-3.22a3.32,3.32,0,0,0-3.3,2.53V78.67h-5.06Z" transform="translate(-2.25 -4.19)"/><path class="cls-2" d="M174.78,72.55a10,10,0,0,0,6.28,2.53c1.51,0,2.69-.45,2.69-1.55s-.82-1.39-2.08-1.8l-1.75-.49c-3.19-.86-5.18-2.37-5.18-5.51,0-3.55,3.06-5.71,7.14-5.71a10.32,10.32,0,0,1,5.84,1.63v4.61A9,9,0,0,0,182.13,64c-1.39,0-2.45.53-2.45,1.55s.69,1.3,2,1.71l2,.61c3.47,1,5.06,2.61,5.06,5.55,0,3.67-3.23,5.63-7.51,5.63a11.14,11.14,0,0,1-6.44-1.84Z" transform="translate(-2.25 -4.19)"/><path class="cls-2" d="M199.35,79.08c-5.3,0-8.94-3.92-8.94-9.51S194,60,199.35,60s8.93,3.92,8.93,9.55S204.65,79.08,199.35,79.08Zm0-14.78c-2.53,0-3.92,2.21-3.92,5.27s1.39,5.22,3.92,5.22,3.92-2.2,3.92-5.22S201.88,64.3,199.35,64.3Z" transform="translate(-2.25 -4.19)"/><path class="cls-2" d="M222,65.41a5.08,5.08,0,0,0-2.53-.61A3.3,3.3,0,0,0,216,67.37v11.3H210.9V60.43H216v1.8A4.69,4.69,0,0,1,220,60a4.82,4.82,0,0,1,1.92.32Z" transform="translate(-2.25 -4.19)"/><path class="cls-2" d="M231.83,78.67h-5.06V64.51H223.3V60.43h3.46V55.49h5.06v4.94h3.88v4.08h-3.88Z" transform="translate(-2.25 -4.19)"/><path class="cls-2" d="M240.68,58.06a2.9,2.9,0,1,1,3-2.9A2.91,2.91,0,0,1,240.68,58.06Zm2.53,20.61h-5.06V60.43h5.06Z" transform="translate(-2.25 -4.19)"/><path class="cls-2" d="M263.17,78.67h-5.06V77a6.6,6.6,0,0,1-4.9,2.08c-4.08,0-6.41-2.7-6.41-6.73V60.43h5.06v10.9c0,1.92.94,3.22,2.94,3.22A3.24,3.24,0,0,0,258.07,72V60.43h5.1Z" transform="translate(-2.25 -4.19)"/><path class="cls-2" d="M287,60c3.75,0,6,2.61,6,6.73V78.67h-5.06V67.81c0-2-.86-3.26-2.61-3.26a2.82,2.82,0,0,0-2.82,2.37V78.67h-5.1V67.81c0-2-.81-3.26-2.57-3.26A2.86,2.86,0,0,0,272,66.92V78.67h-5.06V60.43H272v1.51A5.8,5.8,0,0,1,276.6,60a6,6,0,0,1,4.9,2.33A7.1,7.1,0,0,1,287,60Z" transform="translate(-2.25 -4.19)"/></svg>