<?xml version="1.0" encoding="utf-8"?>
<!-- Generator: Adobe Illustrator 21.0.0, SVG Export Plug-In . SVG Version: 6.00 Build 0)  -->
<svg version="1.1" id="Layer_1" xmlns="http://www.w3.org/2000/svg" xmlns:xlink="http://www.w3.org/1999/xlink" x="0px" y="0px"
	 viewBox="0 0 310 54" style="enable-background:new 0 0 310 54;" xml:space="preserve">
<style type="text/css">
	.st0{fill:#FFFFFF;}
	.st1{fill:#231F20;}
</style>
<g>
	<g>
		<path class="st0" d="M84.6,13.3h-1.5c-0.9,0-1.7,0.8-1.7,1.6v19.1c0,1.1-0.9,2.1-2.1,2.1h-0.8c-1.1,0-2.1-0.9-2.1-2.1V15
			c0-0.9-0.8-1.6-1.7-1.6h-1.5c-0.9,0-1.7,0.7-1.7,1.6v19.1c0,3.8,3.1,6.9,6.9,6.9h0.8c3.8,0,6.9-3.1,6.9-6.9V15
			C86.3,14,85.6,13.3,84.6,13.3z"/>
		<path class="st0" d="M97.1,13.3h-6c-0.9,0-1.6,0.8-1.6,1.6v24c0,0.9,0.8,1.7,1.6,1.7h1.5c0.9,0,1.7-0.7,1.7-1.7v-6.5h2.8
			c3.8,0,6.9-3.1,6.9-6.9v-5.2C103.9,16.4,100.9,13.3,97.1,13.3z M99.1,20.2v5.2c0,1.1-0.9,2.1-2.1,2.1h-2.8v-9.4h2.8
			C98.2,18.1,99.1,19.1,99.1,20.2z"/>
		<path class="st0" d="M113.9,13.3h-6c-0.9,0-1.6,0.8-1.6,1.6v24c0,0.9,0.8,1.7,1.6,1.7h1.5c0.9,0,1.7-0.7,1.7-1.7v-6.5h2.8
			c3.8,0,6.9-3.1,6.9-6.9v-5.2C120.9,16.4,117.8,13.3,113.9,13.3z M116,20.2v5.2c0,1.1-0.9,2.1-2.1,2.1h-2.8v-9.4h2.8
			C115,18.1,116,19.1,116,20.2z"/>
		<path class="st0" d="M136.3,18.1c0.9,0,1.6-0.8,1.7-1.7v-1.5c0-0.9-0.8-1.6-1.7-1.6H125c-0.9,0-1.6,0.8-1.6,1.6v24
			c0,0.9,0.8,1.7,1.6,1.7h11.3c0.9,0,1.7-0.7,1.7-1.7v-1.4c0-0.9-0.8-1.7-1.7-1.7h-8.1v-6.4h7.3c0.9,0,1.7-0.8,1.7-1.7v-1.5
			c0-0.9-0.8-1.7-1.7-1.7h-7.3v-6.4H136.3z"/>
		<path class="st0" d="M155,38.3l-3-7.1c1.8-1.2,3-3.4,3-5.8v-5.2c0-3.8-3.1-6.9-6.9-6.9h-6c-0.9,0-1.6,0.8-1.6,1.6v24
			c0,0.9,0.8,1.7,1.6,1.7h1.5c0.9,0,1.7-0.7,1.7-1.7v-6.5h1.9l3.1,7.2c0.3,0.6,0.9,1,1.5,1h1.6c0.9,0,1.7-0.7,1.7-1.6
			C155.2,38.8,155.2,38.5,155,38.3z M150.2,20.2v5.2c0,1.1-0.9,2.1-2.1,2.1h-2.8v-9.4h2.8C149.3,18.1,150.2,19.1,150.2,20.2z"/>
	</g>
	<g>
		<path class="st0" d="M180.7,13.3h-1.5c-0.9,0-1.7,0.6-1.7,1.6l-0.3,11.1l-0.5,4.4l-1.1-5.4c-0.2-0.8-0.9-1.3-1.6-1.3h-2.7
			c-0.7,0-1.4,0.5-1.6,1.3l-1.1,5.4l-0.5-4.4l-0.4-11.2c0-0.9-0.8-1.6-1.7-1.6h-1.5c-0.9,0-1.7,0.8-1.7,1.7l0.4,11.4l1.6,12.8
			c0.1,0.8,0.8,1.5,1.7,1.5h2.9c0.8-0.1,1.4-0.5,1.6-1.3l1.5-7.1l1.5,7.1c0.2,0.8,0.9,1.2,1.6,1.3h3c0.8,0,1.5-0.6,1.7-1.5l1.6-12.8
			l0,0l0.4-11.4C182.4,14.1,181.7,13.3,180.7,13.3z"/>
		<path class="st0" d="M198.4,18.2c0.9,0,1.6-0.8,1.7-1.7V15c0-0.9-0.8-1.6-1.7-1.6h-11.3c-0.9,0-1.6,0.8-1.6,1.6v24
			c0,0.9,0.8,1.7,1.6,1.7h11.3c0.9,0,1.7-0.7,1.7-1.7v-1.5c0-0.9-0.8-1.7-1.7-1.7h-8.1v-6.4h7.3c0.9,0,1.7-0.8,1.7-1.7v-1.5
			c0-0.9-0.8-1.7-1.7-1.7h-7.3v-6.4H198.4z"/>
		<path class="st0" d="M212.1,25.3c-1.3-0.7-2.5-1.3-3.4-2c-0.9-0.7-1.4-1.4-1.4-2.3v-1.1c0-1.1,0.9-2.1,2.1-2.1h0.8
			c1.1,0,2.1,0.9,2.1,2.1v0.8c0,0.9,0.8,1.7,1.7,1.7h1.5c0.9,0,1.7-0.7,1.7-1.7v-0.8c0-3.8-3.1-6.9-6.9-6.9h-0.8
			c-3.8,0-6.9,3.1-6.9,6.9V21c0,4.2,2.8,6.1,5.4,7.5c1.3,0.7,2.5,1.3,3.4,2c0.9,0.7,1.4,1.4,1.4,2.5v1.1c0,1.2-0.9,2.1-2.1,2.1H209
			c-1.1,0-2.1-0.9-2.1-2.1v-0.8c0-0.9-0.8-1.6-1.7-1.7h-1.5c-0.9,0-1.6,0.8-1.7,1.7v0.8c0,3.8,3.1,6.9,6.9,6.9h1.5
			c3.8,0,6.9-3.1,6.9-6.9V33C217.4,28.7,214.6,26.7,212.1,25.3z"/>
		<path class="st0" d="M233.1,13.3h-12.7c-0.9,0-1.7,0.8-1.7,1.6v1.5c0,0.9,0.7,1.7,1.7,1.7h3.9V39c0,0.9,0.8,1.7,1.7,1.7h1.5
			c0.9,0,1.7-0.8,1.7-1.7V18.2h3.9c0.9,0,1.7-0.8,1.7-1.7V15C234.8,14,234,13.3,233.1,13.3z"/>
	</g>
	<g>
		<path class="st0" d="M251.6,25.3c-1.3-0.7-2.5-1.3-3.4-2c-0.9-0.7-1.4-1.4-1.4-2.3v-1.1c0-1.1,0.9-2.1,2.1-2.1h0.8
			c1.1,0,2.1,0.9,2.1,2.1v0.8c0,0.9,0.8,1.7,1.7,1.7h1.5c0.9,0,1.7-0.7,1.7-1.7v-0.8c0-3.8-3.1-6.9-6.9-6.9h-0.8
			c-3.8,0-6.9,3.1-6.9,6.9V21c0,4.2,2.8,6.1,5.4,7.5c1.3,0.7,2.5,1.3,3.4,2c0.9,0.7,1.4,1.4,1.4,2.5v1.1c0,1.1-0.9,2.1-2.1,2.1h-1.5
			c-1.1,0-2.1-0.9-2.1-2.1v-0.8c0-0.9-0.8-1.6-1.7-1.7h-1.5c-0.9,0-1.6,0.8-1.7,1.7v0.8c0,3.8,3.1,6.9,6.9,6.9h1.5
			c3.8,0,6.9-3.1,6.9-6.9V33C257,28.7,254.1,26.6,251.6,25.3z"/>
		<path class="st0" d="M271.8,35.8h-3.6V18.1h3.2c0.9,0,1.6-0.8,1.7-1.7v-1.5c0-0.9-0.8-1.6-1.7-1.6h-11.2c-0.9,0-1.7,0.7-1.7,1.6
			v1.5c0,0.9,0.8,1.6,1.7,1.7h3.2v17.6h-3.6c-0.9,0-1.7,0.7-1.7,1.7V39c0,0.9,0.8,1.7,1.7,1.7h12c0.9,0,1.7-0.7,1.7-1.7v-1.5
			C273.6,36.5,272.8,35.8,271.8,35.8z"/>
		<path class="st0" d="M283.8,13.3h-6c-0.9,0-1.6,0.8-1.6,1.6v24c0,0.9,0.8,1.7,1.6,1.7h6c3.8,0,6.9-3.1,6.9-6.9V20.1
			C290.8,16.4,287.7,13.3,283.8,13.3z M285.9,33.7c0,1.1-0.9,2.1-2.1,2.1H281V18.1h2.8c1.1,0,2.1,0.9,2.1,2.1V33.7z"/>
		<path class="st0" d="M306.5,18.1c0.9,0,1.6-0.8,1.7-1.7v-1.5c0-0.9-0.8-1.6-1.7-1.6h-11.3c-0.9,0-1.6,0.8-1.6,1.6v24
			c0,0.9,0.8,1.7,1.6,1.7h11.3c0.9,0,1.7-0.7,1.7-1.7v-1.5c0-0.9-0.8-1.7-1.7-1.7h-8.1v-6.4h7.3c0.9,0,1.7-0.8,1.7-1.7v-1.5
			c0-0.9-0.8-1.7-1.7-1.7h-7.3v-6.4H306.5z"/>
	</g>
</g>
<g>
	<g>
		<path class="st0" d="M53.7,52.3c0,0.5-0.4,0.9-0.9,0.9H2.1c-0.5,0-0.9-0.4-0.9-0.9V1.6c0-0.5,0.4-0.9,0.9-0.9h50.8
			c0.5,0,0.9,0.4,0.9,0.9L53.7,52.3L53.7,52.3z"/>
	</g>
	<g>
		<g>
			<path class="st1" d="M26.5,5.1c-0.2-0.2-0.5-0.3-0.7-0.3h-3.5c-0.3,0-0.5,0.1-0.7,0.3c-0.2,0.2-0.3,0.5-0.3,0.7v14H11.1
				c0-3.4,0-14,0-14c0-0.3-0.1-0.5-0.3-0.7c-0.2-0.2-0.5-0.3-0.7-0.3H6.6C6.3,4.8,6,4.9,5.8,5.1C5.6,5.3,5.6,5.6,5.6,5.8l0,18.6
				c0,0.6,0.5,1,1,1h19.1c0.6,0,1-0.5,1-1V5.8C26.8,5.6,26.7,5.3,26.5,5.1z"/>
		</g>
		<g>
			<path class="st1" d="M26.5,28.3c-0.2-0.2-0.5-0.3-0.7-0.3h-3.6c-0.3,0-0.5,0.1-0.7,0.3c-0.2,0.2-0.3,0.5-0.3,0.7v10.7
				c-1.3-1.6-2.4-2.9-2.4-2.9c-0.2-0.2-0.5-0.4-0.8-0.4h-3.7c-0.3,0-0.6,0.1-0.8,0.4c0,0-1.1,1.3-2.4,2.9V29c0-0.3-0.1-0.5-0.3-0.7
				c-0.2-0.2-0.5-0.3-0.7-0.3H6.6c-0.3,0-0.5,0.1-0.7,0.3c-0.2,0.2-0.3,0.5-0.3,0.7v18.6c0,0.3,0.1,0.5,0.3,0.7
				c0.2,0.2,0.5,0.3,0.7,0.3h4.1c0.3,0,0.6-0.1,0.8-0.4c2-2.5,3.8-5.2,4.7-6.3h0.1c0.9,1.1,2.6,3.8,4.7,6.3c0.2,0.2,0.5,0.4,0.8,0.4
				h4.1c0.3,0,0.5-0.1,0.7-0.3c0.2-0.2,0.3-0.5,0.3-0.7V29C26.8,28.7,26.7,28.4,26.5,28.3z"/>
		</g>
		<path class="st1" d="M30.1,40.8h3.4c0.6,0,1.1,0.5,1.1,1.1v1.5h8.7v-0.9l-13.2-4.9c-0.9-0.4-1.1-0.9-1.1-1.9v-5.3
			c0-1.6,0.9-2.6,2.5-2.6h15.1c1.6,0,2.5,0.9,2.5,2.5v3.8c0,0.6-0.5,1.1-1.1,1.1h-3.4c-0.6,0-1.1-0.5-1.1-1.1V33h-8.7V34l13.2,4.9
			c0.9,0.4,1.2,0.9,1.2,2v5.3c0,1.6-0.9,2.6-2.5,2.6H31.5c-1.6,0-2.5-1.4-2.5-3v-3.8C29,41.3,29.5,40.8,30.1,40.8z"/>
	</g>
</g>
</svg>
