<?xml version="1.0" encoding="utf-8"?>
<!-- Generator: Adobe Illustrator 21.0.0, SVG Export Plug-In . SVG Version: 6.00 Build 0)  -->
<svg version="1.1" id="Layer_1" xmlns="http://www.w3.org/2000/svg" xmlns:xlink="http://www.w3.org/1999/xlink" x="0px" y="0px"
	 viewBox="0 0 378 185" style="enable-background:new 0 0 378 185;" xml:space="preserve">
<style type="text/css">
	.st0{fill:#EE3124;}
	.st1{fill:#FFFFFF;}
</style>
<g>
	<path class="st0" d="M184.9,181.1c0,1.6-1.3,3-3,3H4.4c-1.6,0-3-1.3-3-3V3.5c0-1.6,1.3-3,3-3H182c1.6,0,3,1.3,3,3V181.1z"/>
</g>
<g>
	<path class="st0" d="M376.8,181.1c0,1.6-1.3,3-3,3H196.3c-1.6,0-3-1.3-3-3V3.5c0-1.6,1.3-3,3-3h177.6c1.6,0,3,1.3,3,3V181.1z"/>
</g>
<g>
	<path class="st1" d="M234.7,14.9h-2.5c-1.6,0-2.9,1.3-2.9,2.8v32.5c0,1.9-1.6,3.6-3.5,3.6h-1.3c-1.9,0-3.5-1.6-3.5-3.6V17.7
		c0-1.6-1.3-2.8-2.9-2.8h-2.5c-1.5,0-2.9,1.2-2.9,2.8v32.5c0,6.5,5.3,11.8,11.8,11.8h1.3c6.5,0,11.8-5.3,11.8-11.8V17.7
		C237.6,16.1,236.3,14.9,234.7,14.9z"/>
	<path class="st1" d="M255.8,14.9h-10.2c-1.6,0-2.8,1.3-2.8,2.8v40.8c0,1.6,1.3,2.9,2.8,2.9h2.6c1.5,0,2.9-1.2,2.9-2.9V47.4h4.8
		c6.5,0,11.8-5.3,11.8-11.8v-8.9C267.5,20.1,262.3,14.9,255.8,14.9z M259.3,26.6v8.9c0,1.9-1.6,3.6-3.5,3.6H251v-16l4.8,0
		C257.7,23.1,259.3,24.7,259.3,26.6z"/>
	<path class="st1" d="M284.5,14.9h-10.2c-1.6,0-2.8,1.3-2.8,2.8v40.8c0,1.6,1.3,2.9,2.8,2.9h2.6c1.5,0,2.9-1.2,2.9-2.9V47.4h4.8
		c6.5,0,11.8-5.3,11.8-11.8v-8.9C296.3,20.1,291,14.9,284.5,14.9z M288,26.6v8.9c0,1.9-1.6,3.6-3.5,3.6h-4.8v-16h4.8
		C286.4,23.1,288,24.7,288,26.6z"/>
	<path class="st1" d="M322.6,23.1c1.6,0,2.8-1.3,2.9-2.9v-2.6c0-1.6-1.3-2.8-2.9-2.8h-19.2c-1.6,0-2.8,1.3-2.8,2.8v40.8
		c0,1.6,1.3,2.9,2.8,2.9h19.2c1.5,0,2.9-1.2,2.9-2.9V56c0-1.6-1.3-2.9-2.9-2.9h-13.7V42.2h12.4c1.6,0,2.9-1.3,2.9-2.9v-2.5
		c0-1.6-1.3-2.9-2.9-2.9h-12.4V23.1H322.6z"/>
	<path class="st1" d="M354.4,57.4l-5.1-12.1c3.1-2.1,5.1-5.7,5.1-9.8v-8.9c0-6.5-5.2-11.8-11.8-11.8h-10.2c-1.6,0-2.8,1.3-2.8,2.8
		v40.8c0,1.6,1.3,2.9,2.8,2.9h2.6c1.5,0,2.9-1.2,2.9-2.9V47.4h3.3l5.2,12.3c0.5,1.1,1.5,1.7,2.6,1.7h2.8c1.6,0,2.9-1.2,2.9-2.8
		C354.7,58.2,354.6,57.8,354.4,57.4z M346.2,26.6v8.9c0,1.9-1.6,3.6-3.5,3.6h-4.8v-16l4.8,0C344.6,23.1,346.2,24.7,346.2,26.6z"/>
	<path class="st1" d="M242.6,68.3h-2.5c-1.5,0-2.9,1.1-2.9,2.8l-0.5,18.9l-0.8,7.5l-1.8-9.1c-0.4-1.4-1.6-2.2-2.8-2.2h-4.6
		c-1.2,0-2.4,0.8-2.8,2.2l-1.8,9.1l-0.8-7.5L220.7,71c0-1.6-1.4-2.7-2.9-2.7h-2.5c-1.6,0-2.9,1.3-2.9,2.9l0.6,19.4l2.7,21.7
		c0.2,1.4,1.4,2.5,2.9,2.5h5c1.3-0.1,2.4-0.9,2.7-2.2l2.6-12.1l2.6,12.1c0.3,1.3,1.5,2.1,2.7,2.2h5.1c1.4,0,2.6-1.1,2.9-2.5
		l2.7-21.7v0l0.6-19.4C245.5,69.6,244.2,68.3,242.6,68.3z"/>
	<path class="st1" d="M272.7,76.6c1.6,0,2.8-1.3,2.9-2.9v-2.6c0-1.6-1.3-2.8-2.9-2.8h-19.2c-1.6,0-2.8,1.3-2.8,2.8v40.8
		c0,1.6,1.3,2.9,2.8,2.9h19.2c1.5,0,2.9-1.2,2.9-2.9v-2.5c0-1.6-1.3-2.9-2.9-2.9H259V95.7h12.4c1.6,0,2.9-1.3,2.9-2.9v-2.5
		c0-1.6-1.3-2.9-2.9-2.9H259V76.6H272.7z"/>
	<path class="st1" d="M295.9,88.6c-2.2-1.2-4.3-2.2-5.8-3.4c-1.5-1.2-2.3-2.3-2.3-3.9v-1.9c0-1.9,1.6-3.5,3.5-3.5h1.3
		c1.9,0,3.5,1.6,3.5,3.5v1.3c0,1.6,1.3,2.9,2.9,2.9h2.5c1.5,0,2.9-1.2,2.9-2.9v-1.3c0-6.5-5.3-11.8-11.8-11.8h-1.3
		c-6.5,0-11.8,5.3-11.8,11.8v1.9c0,7.1,4.8,10.4,9.1,12.7c2.2,1.2,4.3,2.2,5.8,3.4c1.5,1.2,2.3,2.4,2.3,4.3v1.9c0,2-1.6,3.6-3.5,3.6
		h-2.5c-1.9,0-3.5-1.6-3.5-3.6v-1.3c0-1.6-1.3-2.8-2.9-2.9h-2.6c-1.6,0-2.8,1.3-2.9,2.9v1.3c0,6.5,5.3,11.8,11.8,11.8h2.5
		c6.5,0,11.8-5.3,11.8-11.8v-1.9C305,94.5,300.2,91,295.9,88.6z"/>
	<path class="st1" d="M331.6,68.3h-21.6c-1.6,0-2.9,1.3-2.9,2.8v2.6c0,1.5,1.2,2.9,2.9,2.9h6.7v35.4c0,1.6,1.3,2.9,2.9,2.9h2.5
		c1.6,0,2.9-1.3,2.9-2.9V76.6h6.7c1.6,0,2.9-1.3,2.9-2.9v-2.6C334.5,69.5,333.2,68.3,331.6,68.3z"/>
	<path class="st1" d="M229.1,142.1c-2.2-1.2-4.3-2.2-5.8-3.4c-1.5-1.2-2.3-2.3-2.3-3.9v-1.9c0-1.9,1.6-3.5,3.5-3.5h1.3
		c1.9,0,3.5,1.6,3.5,3.5v1.3c0,1.6,1.3,2.9,2.9,2.9h2.5c1.5,0,2.9-1.2,2.9-2.9v-1.3c0-6.5-5.3-11.8-11.8-11.8h-1.3
		c-6.5,0-11.8,5.3-11.8,11.8v1.9c0,7.1,4.8,10.4,9.1,12.7c2.2,1.2,4.3,2.2,5.8,3.4c1.5,1.2,2.3,2.4,2.3,4.3v1.9
		c0,1.9-1.6,3.6-3.5,3.6h-2.5c-1.9,0-3.5-1.6-3.5-3.6v-1.3c0-1.6-1.3-2.8-2.9-2.9h-2.6c-1.6,0-2.8,1.3-2.9,2.9v1.3
		c0,6.5,5.3,11.8,11.8,11.8h2.5c6.5,0,11.8-5.3,11.8-11.8v-1.9C238.3,147.9,233.5,144.4,229.1,142.1z"/>
	<path class="st1" d="M263.6,160h-6.1v-30l5.4,0c1.6,0,2.8-1.3,2.9-2.9v-2.6c0-1.6-1.3-2.8-2.9-2.8h-19.1c-1.5,0-2.9,1.2-2.9,2.8
		v2.6c0,1.6,1.3,2.8,2.9,2.9h5.4v30h-6.1c-1.5,0-2.9,1.2-2.9,2.9v2.5c0,1.6,1.3,2.9,2.9,2.9h20.4c1.5,0,2.9-1.2,2.9-2.9v-2.5
		C266.5,161.2,265.2,160,263.6,160z"/>
	<path class="st1" d="M284,121.7h-10.2c-1.6,0-2.8,1.3-2.8,2.8v40.8c0,1.6,1.3,2.9,2.8,2.9H284c6.5,0,11.8-5.3,11.8-11.8v-23
		C295.8,127,290.5,121.7,284,121.7z M287.5,156.5c0,1.9-1.6,3.5-3.5,3.5h-4.8v-30h4.8c1.9,0,3.5,1.6,3.5,3.5V156.5z"/>
	<path class="st1" d="M322.5,130c1.6,0,2.8-1.3,2.9-2.9v-2.6c0-1.6-1.3-2.8-2.9-2.8h-19.2c-1.5,0-2.8,1.3-2.8,2.8v40.8
		c0,1.6,1.3,2.9,2.8,2.9h19.2c1.5,0,2.9-1.2,2.9-2.9v-2.5c0-1.6-1.3-2.9-2.9-2.9h-13.7v-10.8l12.4,0c1.6,0,2.9-1.3,2.9-2.9v-2.5
		c0-1.6-1.3-2.9-2.9-2.9h-12.4V130H322.5z"/>
</g>
<g>
	<g>
		<path class="st1" d="M89.6,15.9c-0.7-0.7-1.6-1-2.5-1H74.7c-0.9,0-1.9,0.4-2.5,1c-0.7,0.7-1,1.6-1,2.5l0,49.1H36
			c0-11.9,0-49.1,0-49.1c0-0.9-0.4-1.9-1-2.5c-0.7-0.7-1.6-1-2.5-1H20c-1,0-1.9,0.4-2.5,1c-0.7,0.7-1,1.6-1,2.5l0.1,65
			c0,2,1.6,3.6,3.6,3.6h67c2,0,3.6-1.6,3.6-3.6l0-65C90.7,17.5,90.3,16.6,89.6,15.9z"/>
	</g>
	<g>
		<path class="st1" d="M89.8,96.9c-0.7-0.7-1.6-1-2.5-1H74.8c-0.9,0-1.9,0.4-2.5,1c-0.7,0.7-1.1,1.6-1.1,2.5v37.5
			c-4.5-5.5-8.3-10.2-8.3-10.3c-0.7-0.8-1.7-1.3-2.8-1.3h-13c-1.1,0-2.1,0.5-2.8,1.3c0,0-3.8,4.7-8.3,10.3V99.4
			c0-0.9-0.4-1.9-1.1-2.5c-0.7-0.7-1.6-1-2.5-1H20.1c-0.9,0-1.9,0.4-2.5,1c-0.7,0.7-1.1,1.6-1.1,2.5v65.2c0,0.9,0.4,1.9,1.1,2.5
			c0.7,0.7,1.6,1.1,2.5,1.1h14.2c1.1,0,2.1-0.5,2.8-1.3c7.1-8.8,13.3-18.3,16.4-22.1H54c3,3.8,9.2,13.3,16.4,22.1
			c0.7,0.8,1.7,1.3,2.8,1.3h14.2c0.9,0,1.9-0.4,2.5-1.1c0.7-0.7,1-1.6,1-2.5V99.4C90.9,98.5,90.5,97.5,89.8,96.9z"/>
	</g>
	<path class="st1" d="M102.5,140.7h11.8c2.2,0,3.9,1.8,3.9,3.9v5.4h30.5v-3l-46.3-17.2c-3.1-1.3-3.9-3.2-3.9-6.8v-18.4
		c0-5.7,3.2-9.1,8.7-9.1h53c5.6,0,8.7,3.2,8.7,8.9v13.4c0,2.2-1.8,4-4,4h-11.9c-2.2,0-4-1.8-4-4v-4.2h-30.6v3.3l46.3,17.1
		c3.1,1.3,4.1,3.3,4.1,6.9v18.5c0,5.7-3.2,9.1-8.8,9.1h-52.9c-5.5,0-8.7-4.8-8.7-10.6v-13.3C98.6,142.4,100.4,140.7,102.5,140.7z"/>
</g>
</svg>
